<svg id="visual" viewBox="0 0 900 450" width="900" height="450" xmlns="http://www.w3.org/2000/svg" xmlns:xlink="http://www.w3.org/1999/xlink" version="1.1"><rect x="0" y="0" width="900" height="450" fill="#002233"></rect><g transform="translate(422.4460080460285 311.0248799657027)"><path d="M170 -228.9C250.2 -175.7 365.8 -166 380.8 -123C395.8 -80 310.1 -3.5 263.6 68.9C217 141.4 209.6 209.8 172.2 229.3C134.8 248.8 67.4 219.3 11.3 203.8C-44.9 188.3 -89.7 186.8 -127.5 167.4C-165.2 148 -195.8 110.8 -235.9 59.6C-276.1 8.3 -325.9 -56.9 -327.4 -123.1C-328.8 -189.2 -282 -256.4 -219.4 -315.4C-156.7 -374.4 -78.4 -425.2 -16.8 -402.1C44.9 -379.1 89.7 -282.2 170 -228.9" fill="#BB004B"></path></g></svg>