<svg id="visual" viewBox="0 0 900 600" width="900" height="600" xmlns="http://www.w3.org/2000/svg" xmlns:xlink="http://www.w3.org/1999/xlink" version="1.1"><rect x="0" y="0" width="900" height="600" fill="#001220"></rect><path d="M0 434L21.5 428.7C43 423.3 86 412.7 128.8 402.5C171.7 392.3 214.3 382.7 257.2 385.5C300 388.3 343 403.7 385.8 407.2C428.7 410.7 471.3 402.3 514.2 395.3C557 388.3 600 382.7 642.8 390.2C685.7 397.7 728.3 418.3 771.2 428.5C814 438.7 857 438.3 878.5 438.2L900 438L900 601L878.5 601C857 601 814 601 771.2 601C728.3 601 685.7 601 642.8 601C600 601 557 601 514.2 601C471.3 601 428.7 601 385.8 601C343 601 300 601 257.2 601C214.3 601 171.7 601 128.8 601C86 601 43 601 21.5 601L0 601Z" fill="#69fa8c"></path><path d="M0 418L21.5 421.7C43 425.3 86 432.7 128.8 434.7C171.7 436.7 214.3 433.3 257.2 426.5C300 419.7 343 409.3 385.8 406.8C428.7 404.3 471.3 409.7 514.2 410.8C557 412 600 409 642.8 417.5C685.7 426 728.3 446 771.2 451C814 456 857 446 878.5 441L900 436L900 601L878.5 601C857 601 814 601 771.2 601C728.3 601 685.7 601 642.8 601C600 601 557 601 514.2 601C471.3 601 428.7 601 385.8 601C343 601 300 601 257.2 601C214.3 601 171.7 601 128.8 601C86 601 43 601 21.5 601L0 601Z" fill="#00e7e4"></path><path d="M0 465L21.5 470.3C43 475.7 86 486.3 128.8 486.5C171.7 486.7 214.3 476.3 257.2 473.8C300 471.3 343 476.7 385.8 483.7C428.7 490.7 471.3 499.3 514.2 497.7C557 496 600 484 642.8 474C685.7 464 728.3 456 771.2 454.2C814 452.3 857 456.7 878.5 458.8L900 461L900 601L878.5 601C857 601 814 601 771.2 601C728.3 601 685.7 601 642.8 601C600 601 557 601 514.2 601C471.3 601 428.7 601 385.8 601C343 601 300 601 257.2 601C214.3 601 171.7 601 128.8 601C86 601 43 601 21.5 601L0 601Z" fill="#00c6ff"></path><path d="M0 514L21.5 512C43 510 86 506 128.8 505.2C171.7 504.3 214.3 506.7 257.2 505.5C300 504.3 343 499.7 385.8 499.3C428.7 499 471.3 503 514.2 506.8C557 510.7 600 514.3 642.8 519.5C685.7 524.7 728.3 531.3 771.2 534C814 536.7 857 535.3 878.5 534.7L900 534L900 601L878.5 601C857 601 814 601 771.2 601C728.3 601 685.7 601 642.8 601C600 601 557 601 514.2 601C471.3 601 428.7 601 385.8 601C343 601 300 601 257.2 601C214.3 601 171.7 601 128.8 601C86 601 43 601 21.5 601L0 601Z" fill="#009cff"></path><path d="M0 542L21.5 540C43 538 86 534 128.8 537.2C171.7 540.3 214.3 550.7 257.2 556.5C300 562.3 343 563.7 385.8 564.2C428.7 564.7 471.3 564.3 514.2 564.5C557 564.7 600 565.3 642.8 562.5C685.7 559.7 728.3 553.3 771.2 547.5C814 541.7 857 536.3 878.5 533.7L900 531L900 601L878.5 601C857 601 814 601 771.2 601C728.3 601 685.7 601 642.8 601C600 601 557 601 514.2 601C471.3 601 428.7 601 385.8 601C343 601 300 601 257.2 601C214.3 601 171.7 601 128.8 601C86 601 43 601 21.5 601L0 601Z" fill="#0066ff"></path></svg>