<svg id="visual" viewBox="0 0 900 450" width="900" height="450" xmlns="http://www.w3.org/2000/svg" xmlns:xlink="http://www.w3.org/1999/xlink" version="1.1"><g stroke-width="1" stroke-linejoin="bevel"><path d="M441 232L416 238L414 271Z" fill="#1e2142" stroke="#1e2142"></path><path d="M414 271L453 274L441 232Z" fill="#942756" stroke="#942756"></path><path d="M414 271L445 303L453 274Z" fill="#a6294f" stroke="#a6294f"></path><path d="M500 279L481 234L453 274Z" fill="#942756" stroke="#942756"></path><path d="M453 274L481 234L441 232Z" fill="#81275a" stroke="#81275a"></path><path d="M416 238L372 278L414 271Z" fill="#101d36" stroke="#101d36"></path><path d="M414 271L409 321L445 303Z" fill="#6c285b" stroke="#6c285b"></path><path d="M481 234L450 191L441 232Z" fill="#a6294f" stroke="#a6294f"></path><path d="M441 232L450 191L416 238Z" fill="#a6294f" stroke="#a6294f"></path><path d="M416 238L370 226L372 278Z" fill="#81275a" stroke="#81275a"></path><path d="M445 303L483 301L453 274Z" fill="#00101c" stroke="#00101c"></path><path d="M372 278L409 321L414 271Z" fill="#00101c" stroke="#00101c"></path><path d="M445 303L451 351L483 301Z" fill="#1e2142" stroke="#1e2142"></path><path d="M402 174L370 226L416 238Z" fill="#a6294f" stroke="#a6294f"></path><path d="M483 301L500 279L453 274Z" fill="#071729" stroke="#071729"></path><path d="M450 191L402 174L416 238Z" fill="#a6294f" stroke="#a6294f"></path><path d="M326 259L350 302L372 278Z" fill="#432754" stroke="#432754"></path><path d="M372 278L350 302L409 321Z" fill="#432754" stroke="#432754"></path><path d="M367 365L407 348L409 321Z" fill="#00101c" stroke="#00101c"></path><path d="M409 321L451 351L445 303Z" fill="#101d36" stroke="#101d36"></path><path d="M407 348L451 351L409 321Z" fill="#30254c" stroke="#30254c"></path><path d="M541 328L552 262L500 279Z" fill="#101d36" stroke="#101d36"></path><path d="M544 217L504 187L481 234Z" fill="#572859" stroke="#572859"></path><path d="M481 234L504 187L450 191Z" fill="#572859" stroke="#572859"></path><path d="M450 191L441 137L402 174Z" fill="#432754" stroke="#432754"></path><path d="M321 218L326 259L370 226Z" fill="#81275a" stroke="#81275a"></path><path d="M370 226L326 259L372 278Z" fill="#6c285b" stroke="#6c285b"></path><path d="M402 174L352 182L370 226Z" fill="#572859" stroke="#572859"></path><path d="M552 262L544 217L481 234Z" fill="#a6294f" stroke="#a6294f"></path><path d="M552 262L481 234L500 279Z" fill="#572859" stroke="#572859"></path><path d="M352 182L321 218L370 226Z" fill="#6c285b" stroke="#6c285b"></path><path d="M541 328L500 279L483 301Z" fill="#942756" stroke="#942756"></path><path d="M495 144L450 191L504 187Z" fill="#572859" stroke="#572859"></path><path d="M495 144L441 137L450 191Z" fill="#101d36" stroke="#101d36"></path><path d="M402 174L351 135L352 182Z" fill="#6c285b" stroke="#6c285b"></path><path d="M326 259L323 302L350 302Z" fill="#101d36" stroke="#101d36"></path><path d="M350 302L367 365L409 321Z" fill="#432754" stroke="#432754"></path><path d="M266 261L323 302L326 259Z" fill="#1e2142" stroke="#1e2142"></path><path d="M489 391L500 356L451 351Z" fill="#00101c" stroke="#00101c"></path><path d="M451 351L500 356L483 301Z" fill="#30254c" stroke="#30254c"></path><path d="M553 190L495 144L504 187Z" fill="#101d36" stroke="#101d36"></path><path d="M323 368L367 365L350 302Z" fill="#101d36" stroke="#101d36"></path><path d="M461 401L489 391L451 351Z" fill="#30254c" stroke="#30254c"></path><path d="M407 92L401 131L441 137Z" fill="#942756" stroke="#942756"></path><path d="M441 137L401 131L402 174Z" fill="#81275a" stroke="#81275a"></path><path d="M500 356L541 328L483 301Z" fill="#071729" stroke="#071729"></path><path d="M572 186L553 190L544 217Z" fill="#572859" stroke="#572859"></path><path d="M544 217L553 190L504 187Z" fill="#30254c" stroke="#30254c"></path><path d="M579 309L573 263L552 262Z" fill="#942756" stroke="#942756"></path><path d="M552 262L573 263L544 217Z" fill="#572859" stroke="#572859"></path><path d="M352 182L311 187L321 218Z" fill="#071729" stroke="#071729"></path><path d="M321 218L275 218L326 259Z" fill="#942756" stroke="#942756"></path><path d="M321 142L311 187L352 182Z" fill="#432754" stroke="#432754"></path><path d="M401 131L351 135L402 174Z" fill="#1e2142" stroke="#1e2142"></path><path d="M461 401L451 351L402 402Z" fill="#432754" stroke="#432754"></path><path d="M500 356L543 361L541 328Z" fill="#30254c" stroke="#30254c"></path><path d="M402 402L451 351L407 348Z" fill="#81275a" stroke="#81275a"></path><path d="M367 365L402 402L407 348Z" fill="#30254c" stroke="#30254c"></path><path d="M537 396L543 361L500 356Z" fill="#00101c" stroke="#00101c"></path><path d="M541 328L579 309L552 262Z" fill="#6c285b" stroke="#6c285b"></path><path d="M572 373L579 309L541 328Z" fill="#a6294f" stroke="#a6294f"></path><path d="M596 219L572 186L544 217Z" fill="#572859" stroke="#572859"></path><path d="M553 190L553 124L495 144Z" fill="#81275a" stroke="#81275a"></path><path d="M596 219L544 217L573 263Z" fill="#101d36" stroke="#101d36"></path><path d="M323 302L323 368L350 302Z" fill="#101d36" stroke="#101d36"></path><path d="M367 365L371 418L402 402Z" fill="#00101c" stroke="#00101c"></path><path d="M260 316L323 368L323 302Z" fill="#942756" stroke="#942756"></path><path d="M351 135L321 142L352 182Z" fill="#1e2142" stroke="#1e2142"></path><path d="M269 173L275 218L311 187Z" fill="#432754" stroke="#432754"></path><path d="M311 187L275 218L321 218Z" fill="#942756" stroke="#942756"></path><path d="M453 77L407 92L441 137Z" fill="#071729" stroke="#071729"></path><path d="M401 131L373 101L351 135Z" fill="#6c285b" stroke="#6c285b"></path><path d="M351 135L324 94L321 142Z" fill="#942756" stroke="#942756"></path><path d="M453 77L441 137L481 79Z" fill="#81275a" stroke="#81275a"></path><path d="M407 92L373 101L401 131Z" fill="#00101c" stroke="#00101c"></path><path d="M619 230L596 219L573 263Z" fill="#572859" stroke="#572859"></path><path d="M275 218L266 261L326 259Z" fill="#6c285b" stroke="#6c285b"></path><path d="M328 397L371 418L367 365Z" fill="#00101c" stroke="#00101c"></path><path d="M404 450L462 450L461 401Z" fill="#6c285b" stroke="#6c285b"></path><path d="M483 450L537 396L489 391Z" fill="#572859" stroke="#572859"></path><path d="M489 391L537 396L500 356Z" fill="#942756" stroke="#942756"></path><path d="M543 361L572 373L541 328Z" fill="#071729" stroke="#071729"></path><path d="M483 450L489 391L461 401Z" fill="#30254c" stroke="#30254c"></path><path d="M323 368L328 397L367 365Z" fill="#432754" stroke="#432754"></path><path d="M263 402L328 397L323 368Z" fill="#942756" stroke="#942756"></path><path d="M583 123L553 124L572 186Z" fill="#81275a" stroke="#81275a"></path><path d="M572 186L553 124L553 190Z" fill="#00101c" stroke="#00101c"></path><path d="M481 79L441 137L495 144Z" fill="#071729" stroke="#071729"></path><path d="M356 46L324 94L373 101Z" fill="#1e2142" stroke="#1e2142"></path><path d="M537 396L572 373L543 361Z" fill="#942756" stroke="#942756"></path><path d="M628 266L619 230L573 263Z" fill="#00101c" stroke="#00101c"></path><path d="M547 100L481 79L495 144Z" fill="#6c285b" stroke="#6c285b"></path><path d="M266 261L260 316L323 302Z" fill="#572859" stroke="#572859"></path><path d="M256 144L269 173L321 142Z" fill="#81275a" stroke="#81275a"></path><path d="M321 142L269 173L311 187Z" fill="#1e2142" stroke="#1e2142"></path><path d="M275 218L233 238L266 261Z" fill="#572859" stroke="#572859"></path><path d="M266 261L222 303L260 316Z" fill="#572859" stroke="#572859"></path><path d="M628 266L573 263L579 309Z" fill="#81275a" stroke="#81275a"></path><path d="M626 186L583 123L572 186Z" fill="#6c285b" stroke="#6c285b"></path><path d="M583 123L547 100L553 124Z" fill="#a6294f" stroke="#a6294f"></path><path d="M553 124L547 100L495 144Z" fill="#572859" stroke="#572859"></path><path d="M617 325L628 266L579 309Z" fill="#81275a" stroke="#81275a"></path><path d="M356 46L373 101L407 92Z" fill="#432754" stroke="#432754"></path><path d="M373 101L324 94L351 135Z" fill="#00101c" stroke="#00101c"></path><path d="M572 373L617 325L579 309Z" fill="#30254c" stroke="#30254c"></path><path d="M404 450L461 401L402 402Z" fill="#81275a" stroke="#81275a"></path><path d="M537 396L590 399L572 373Z" fill="#30254c" stroke="#30254c"></path><path d="M361 450L404 450L371 418Z" fill="#81275a" stroke="#81275a"></path><path d="M371 418L404 450L402 402Z" fill="#6c285b" stroke="#6c285b"></path><path d="M626 186L572 186L596 219Z" fill="#6c285b" stroke="#6c285b"></path><path d="M462 450L483 450L461 401Z" fill="#572859" stroke="#572859"></path><path d="M233 183L233 238L275 218Z" fill="#942756" stroke="#942756"></path><path d="M235 364L261 366L260 316Z" fill="#942756" stroke="#942756"></path><path d="M260 316L261 366L323 368Z" fill="#a6294f" stroke="#a6294f"></path><path d="M328 397L361 450L371 418Z" fill="#942756" stroke="#942756"></path><path d="M619 230L626 186L596 219Z" fill="#432754" stroke="#432754"></path><path d="M661 221L626 186L619 230Z" fill="#572859" stroke="#572859"></path><path d="M302 450L361 450L328 397Z" fill="#1e2142" stroke="#1e2142"></path><path d="M451 31L412 48L453 77Z" fill="#1e2142" stroke="#1e2142"></path><path d="M453 77L412 48L407 92Z" fill="#071729" stroke="#071729"></path><path d="M496 53L453 77L481 79Z" fill="#81275a" stroke="#81275a"></path><path d="M277 87L256 144L321 142Z" fill="#a6294f" stroke="#a6294f"></path><path d="M269 173L233 183L275 218Z" fill="#a6294f" stroke="#a6294f"></path><path d="M553 41L496 53L547 100Z" fill="#432754" stroke="#432754"></path><path d="M547 100L496 53L481 79Z" fill="#071729" stroke="#071729"></path><path d="M546 450L590 399L537 396Z" fill="#81275a" stroke="#81275a"></path><path d="M572 373L620 361L617 325Z" fill="#071729" stroke="#071729"></path><path d="M256 144L233 183L269 173Z" fill="#30254c" stroke="#30254c"></path><path d="M590 399L620 361L572 373Z" fill="#30254c" stroke="#30254c"></path><path d="M682 268L661 221L628 266Z" fill="#a6294f" stroke="#a6294f"></path><path d="M214 282L266 261L233 238Z" fill="#30254c" stroke="#30254c"></path><path d="M214 282L222 303L266 261Z" fill="#6c285b" stroke="#6c285b"></path><path d="M184 280L214 282L233 238Z" fill="#a6294f" stroke="#a6294f"></path><path d="M412 48L356 46L407 92Z" fill="#a6294f" stroke="#a6294f"></path><path d="M324 94L277 87L321 142Z" fill="#30254c" stroke="#30254c"></path><path d="M483 450L546 450L537 396Z" fill="#101d36" stroke="#101d36"></path><path d="M235 364L263 402L261 366Z" fill="#a6294f" stroke="#a6294f"></path><path d="M261 366L263 402L323 368Z" fill="#1e2142" stroke="#1e2142"></path><path d="M496 53L451 31L453 77Z" fill="#a6294f" stroke="#a6294f"></path><path d="M412 48L395 0L356 46Z" fill="#071729" stroke="#071729"></path><path d="M222 303L235 364L260 316Z" fill="#572859" stroke="#572859"></path><path d="M167 318L235 364L222 303Z" fill="#101d36" stroke="#101d36"></path><path d="M641 86L578 79L583 123Z" fill="#6c285b" stroke="#6c285b"></path><path d="M583 123L578 79L547 100Z" fill="#942756" stroke="#942756"></path><path d="M504 0L440 0L451 31Z" fill="#432754" stroke="#432754"></path><path d="M307 49L277 87L324 94Z" fill="#572859" stroke="#572859"></path><path d="M173 191L187 215L233 183Z" fill="#00101c" stroke="#00101c"></path><path d="M670 326L628 266L617 325Z" fill="#1e2142" stroke="#1e2142"></path><path d="M628 266L661 221L619 230Z" fill="#572859" stroke="#572859"></path><path d="M626 186L631 128L583 123Z" fill="#1e2142" stroke="#1e2142"></path><path d="M263 402L302 450L328 397Z" fill="#942756" stroke="#942756"></path><path d="M684 173L631 128L626 186Z" fill="#a6294f" stroke="#a6294f"></path><path d="M307 0L307 49L356 46Z" fill="#30254c" stroke="#30254c"></path><path d="M356 46L307 49L324 94Z" fill="#071729" stroke="#071729"></path><path d="M587 36L553 41L578 79Z" fill="#6c285b" stroke="#6c285b"></path><path d="M578 79L553 41L547 100Z" fill="#81275a" stroke="#81275a"></path><path d="M666 371L670 326L620 361Z" fill="#432754" stroke="#432754"></path><path d="M620 361L670 326L617 325Z" fill="#81275a" stroke="#81275a"></path><path d="M639 414L620 361L590 399Z" fill="#101d36" stroke="#101d36"></path><path d="M670 326L682 268L628 266Z" fill="#6c285b" stroke="#6c285b"></path><path d="M661 221L684 173L626 186Z" fill="#6c285b" stroke="#6c285b"></path><path d="M546 450L589 450L590 399Z" fill="#81275a" stroke="#81275a"></path><path d="M214 125L233 183L256 144Z" fill="#a6294f" stroke="#a6294f"></path><path d="M233 183L187 215L233 238Z" fill="#81275a" stroke="#81275a"></path><path d="M214 282L184 280L222 303Z" fill="#6c285b" stroke="#6c285b"></path><path d="M187 215L184 280L233 238Z" fill="#30254c" stroke="#30254c"></path><path d="M218 80L214 125L277 87Z" fill="#1e2142" stroke="#1e2142"></path><path d="M277 87L214 125L256 144Z" fill="#432754" stroke="#432754"></path><path d="M504 0L451 31L496 53Z" fill="#942756" stroke="#942756"></path><path d="M451 31L440 0L412 48Z" fill="#00101c" stroke="#00101c"></path><path d="M263 402L266 450L302 450Z" fill="#00101c" stroke="#00101c"></path><path d="M224 406L266 450L263 402Z" fill="#1e2142" stroke="#1e2142"></path><path d="M224 406L263 402L235 364Z" fill="#81275a" stroke="#81275a"></path><path d="M188 398L224 406L235 364Z" fill="#6c285b" stroke="#6c285b"></path><path d="M440 0L395 0L412 48Z" fill="#942756" stroke="#942756"></path><path d="M616 450L639 414L590 399Z" fill="#1e2142" stroke="#1e2142"></path><path d="M639 414L666 371L620 361Z" fill="#00101c" stroke="#00101c"></path><path d="M717 279L711 220L682 268Z" fill="#81275a" stroke="#81275a"></path><path d="M395 0L371 0L356 46Z" fill="#81275a" stroke="#81275a"></path><path d="M711 220L684 173L661 221Z" fill="#1e2142" stroke="#1e2142"></path><path d="M629 48L587 36L578 79Z" fill="#a6294f" stroke="#a6294f"></path><path d="M533 0L504 0L496 53Z" fill="#572859" stroke="#572859"></path><path d="M256 0L257 56L307 49Z" fill="#81275a" stroke="#81275a"></path><path d="M307 49L257 56L277 87Z" fill="#942756" stroke="#942756"></path><path d="M589 450L616 450L590 399Z" fill="#101d36" stroke="#101d36"></path><path d="M641 86L583 123L631 128Z" fill="#00101c" stroke="#00101c"></path><path d="M553 41L533 0L496 53Z" fill="#6c285b" stroke="#6c285b"></path><path d="M682 97L641 86L631 128Z" fill="#942756" stroke="#942756"></path><path d="M179 139L173 191L233 183Z" fill="#432754" stroke="#432754"></path><path d="M187 215L138 262L184 280Z" fill="#1e2142" stroke="#1e2142"></path><path d="M144 318L167 318L184 280Z" fill="#942756" stroke="#942756"></path><path d="M184 280L167 318L222 303Z" fill="#942756" stroke="#942756"></path><path d="M595 0L533 0L553 41Z" fill="#572859" stroke="#572859"></path><path d="M257 56L218 80L277 87Z" fill="#6c285b" stroke="#6c285b"></path><path d="M214 125L179 139L233 183Z" fill="#071729" stroke="#071729"></path><path d="M682 268L711 220L661 221Z" fill="#1e2142" stroke="#1e2142"></path><path d="M684 173L688 132L631 128Z" fill="#a6294f" stroke="#a6294f"></path><path d="M717 279L682 268L670 326Z" fill="#81275a" stroke="#81275a"></path><path d="M181 103L179 139L214 125Z" fill="#101d36" stroke="#101d36"></path><path d="M719 172L688 132L684 173Z" fill="#30254c" stroke="#30254c"></path><path d="M166 361L188 398L235 364Z" fill="#071729" stroke="#071729"></path><path d="M224 406L212 450L266 450Z" fill="#a6294f" stroke="#a6294f"></path><path d="M717 328L717 279L670 326Z" fill="#6c285b" stroke="#6c285b"></path><path d="M371 0L307 0L356 46Z" fill="#6c285b" stroke="#6c285b"></path><path d="M257 56L236 35L218 80Z" fill="#a6294f" stroke="#a6294f"></path><path d="M641 86L629 48L578 79Z" fill="#a6294f" stroke="#a6294f"></path><path d="M587 36L595 0L553 41Z" fill="#101d36" stroke="#101d36"></path><path d="M677 41L629 48L641 86Z" fill="#81275a" stroke="#81275a"></path><path d="M167 318L166 361L235 364Z" fill="#30254c" stroke="#30254c"></path><path d="M639 414L672 417L666 371Z" fill="#00101c" stroke="#00101c"></path><path d="M666 371L717 328L670 326Z" fill="#1e2142" stroke="#1e2142"></path><path d="M666 450L672 417L639 414Z" fill="#a6294f" stroke="#a6294f"></path><path d="M727 368L717 328L666 371Z" fill="#572859" stroke="#572859"></path><path d="M179 139L148 184L173 191Z" fill="#6c285b" stroke="#6c285b"></path><path d="M173 191L137 228L187 215Z" fill="#30254c" stroke="#30254c"></path><path d="M167 318L144 318L166 361Z" fill="#572859" stroke="#572859"></path><path d="M125 148L148 184L179 139Z" fill="#942756" stroke="#942756"></path><path d="M176 450L212 450L188 398Z" fill="#071729" stroke="#071729"></path><path d="M188 398L212 450L224 406Z" fill="#6c285b" stroke="#6c285b"></path><path d="M729 96L682 97L688 132Z" fill="#942756" stroke="#942756"></path><path d="M688 132L682 97L631 128Z" fill="#30254c" stroke="#30254c"></path><path d="M184 40L181 103L218 80Z" fill="#81275a" stroke="#81275a"></path><path d="M218 80L181 103L214 125Z" fill="#1e2142" stroke="#1e2142"></path><path d="M137 228L138 262L187 215Z" fill="#942756" stroke="#942756"></path><path d="M256 0L236 35L257 56Z" fill="#572859" stroke="#572859"></path><path d="M138 262L144 318L184 280Z" fill="#432754" stroke="#432754"></path><path d="M763 176L719 172L711 220Z" fill="#942756" stroke="#942756"></path><path d="M711 220L719 172L684 173Z" fill="#a6294f" stroke="#a6294f"></path><path d="M725 142L719 172L763 176Z" fill="#00101c" stroke="#00101c"></path><path d="M148 184L137 228L173 191Z" fill="#942756" stroke="#942756"></path><path d="M621 0L587 36L629 48Z" fill="#a6294f" stroke="#a6294f"></path><path d="M621 0L595 0L587 36Z" fill="#572859" stroke="#572859"></path><path d="M616 450L666 450L639 414Z" fill="#6c285b" stroke="#6c285b"></path><path d="M729 401L727 368L666 371Z" fill="#1e2142" stroke="#1e2142"></path><path d="M307 0L256 0L307 49Z" fill="#1e2142" stroke="#1e2142"></path><path d="M121 78L125 148L181 103Z" fill="#071729" stroke="#071729"></path><path d="M719 172L725 142L688 132Z" fill="#101d36" stroke="#101d36"></path><path d="M677 41L621 0L629 48Z" fill="#00101c" stroke="#00101c"></path><path d="M761 231L711 220L717 279Z" fill="#81275a" stroke="#81275a"></path><path d="M729 401L666 371L672 417Z" fill="#432754" stroke="#432754"></path><path d="M717 328L753 326L717 279Z" fill="#1e2142" stroke="#1e2142"></path><path d="M89 279L144 318L138 262Z" fill="#1e2142" stroke="#1e2142"></path><path d="M84 302L132 353L144 318Z" fill="#1e2142" stroke="#1e2142"></path><path d="M144 318L132 353L166 361Z" fill="#432754" stroke="#432754"></path><path d="M166 361L122 403L188 398Z" fill="#81275a" stroke="#81275a"></path><path d="M677 41L641 86L682 97Z" fill="#1e2142" stroke="#1e2142"></path><path d="M122 403L176 450L188 398Z" fill="#071729" stroke="#071729"></path><path d="M722 49L677 41L682 97Z" fill="#572859" stroke="#572859"></path><path d="M184 40L218 80L236 35Z" fill="#30254c" stroke="#30254c"></path><path d="M181 103L125 148L179 139Z" fill="#572859" stroke="#572859"></path><path d="M94 186L94 222L137 228Z" fill="#432754" stroke="#432754"></path><path d="M137 228L94 222L138 262Z" fill="#00101c" stroke="#00101c"></path><path d="M727 368L753 326L717 328Z" fill="#81275a" stroke="#81275a"></path><path d="M777 275L761 231L717 279Z" fill="#81275a" stroke="#81275a"></path><path d="M712 450L729 401L672 417Z" fill="#6c285b" stroke="#6c285b"></path><path d="M727 368L763 355L753 326Z" fill="#00101c" stroke="#00101c"></path><path d="M217 0L184 40L236 35Z" fill="#30254c" stroke="#30254c"></path><path d="M256 0L217 0L236 35Z" fill="#00101c" stroke="#00101c"></path><path d="M758 131L729 96L725 142Z" fill="#a6294f" stroke="#a6294f"></path><path d="M725 142L729 96L688 132Z" fill="#6c285b" stroke="#6c285b"></path><path d="M761 231L763 176L711 220Z" fill="#00101c" stroke="#00101c"></path><path d="M666 450L712 450L672 417Z" fill="#6c285b" stroke="#6c285b"></path><path d="M94 186L137 228L148 184Z" fill="#1e2142" stroke="#1e2142"></path><path d="M798 322L777 275L753 326Z" fill="#a6294f" stroke="#a6294f"></path><path d="M753 326L777 275L717 279Z" fill="#432754" stroke="#432754"></path><path d="M761 231L799 231L763 176Z" fill="#81275a" stroke="#81275a"></path><path d="M763 355L727 368L761 409Z" fill="#942756" stroke="#942756"></path><path d="M761 409L727 368L729 401Z" fill="#572859" stroke="#572859"></path><path d="M132 353L122 403L166 361Z" fill="#1e2142" stroke="#1e2142"></path><path d="M100 406L122 403L132 353Z" fill="#1e2142" stroke="#1e2142"></path><path d="M94 222L89 279L138 262Z" fill="#432754" stroke="#432754"></path><path d="M125 148L94 186L148 184Z" fill="#432754" stroke="#432754"></path><path d="M56 319L84 302L32 258Z" fill="#432754" stroke="#432754"></path><path d="M94 131L94 186L125 148Z" fill="#101d36" stroke="#101d36"></path><path d="M763 176L758 131L725 142Z" fill="#1e2142" stroke="#1e2142"></path><path d="M766 101L758 131L802 131Z" fill="#071729" stroke="#071729"></path><path d="M84 302L89 279L32 258Z" fill="#432754" stroke="#432754"></path><path d="M89 279L84 302L144 318Z" fill="#942756" stroke="#942756"></path><path d="M760 58L722 49L729 96Z" fill="#942756" stroke="#942756"></path><path d="M729 96L722 49L682 97Z" fill="#071729" stroke="#071729"></path><path d="M677 41L683 0L621 0Z" fill="#81275a" stroke="#81275a"></path><path d="M712 0L683 0L677 41Z" fill="#432754" stroke="#432754"></path><path d="M127 49L181 103L184 40Z" fill="#942756" stroke="#942756"></path><path d="M127 49L121 78L181 103Z" fill="#30254c" stroke="#30254c"></path><path d="M100 406L130 450L122 403Z" fill="#1e2142" stroke="#1e2142"></path><path d="M122 403L130 450L176 450Z" fill="#942756" stroke="#942756"></path><path d="M217 0L178 0L184 40Z" fill="#6c285b" stroke="#6c285b"></path><path d="M121 78L94 131L125 148Z" fill="#81275a" stroke="#81275a"></path><path d="M37 231L89 279L94 222Z" fill="#071729" stroke="#071729"></path><path d="M712 450L761 409L729 401Z" fill="#1e2142" stroke="#1e2142"></path><path d="M813 268L799 231L777 275Z" fill="#942756" stroke="#942756"></path><path d="M78 352L100 406L132 353Z" fill="#81275a" stroke="#81275a"></path><path d="M798 322L753 326L763 355Z" fill="#30254c" stroke="#30254c"></path><path d="M777 275L799 231L761 231Z" fill="#071729" stroke="#071729"></path><path d="M758 131L766 101L729 96Z" fill="#101d36" stroke="#101d36"></path><path d="M722 49L712 0L677 41Z" fill="#942756" stroke="#942756"></path><path d="M802 167L758 131L763 176Z" fill="#942756" stroke="#942756"></path><path d="M56 319L78 352L84 302Z" fill="#6c285b" stroke="#6c285b"></path><path d="M84 302L78 352L132 353Z" fill="#a6294f" stroke="#a6294f"></path><path d="M121 78L92 80L94 131Z" fill="#071729" stroke="#071729"></path><path d="M130 0L127 49L184 40Z" fill="#071729" stroke="#071729"></path><path d="M821 357L798 322L763 355Z" fill="#432754" stroke="#432754"></path><path d="M774 0L712 0L722 49Z" fill="#942756" stroke="#942756"></path><path d="M859 173L802 167L799 231Z" fill="#30254c" stroke="#30254c"></path><path d="M799 231L802 167L763 176Z" fill="#30254c" stroke="#30254c"></path><path d="M766 101L760 58L729 96Z" fill="#30254c" stroke="#30254c"></path><path d="M798 322L813 268L777 275Z" fill="#432754" stroke="#432754"></path><path d="M820 103L760 58L766 101Z" fill="#942756" stroke="#942756"></path><path d="M57 168L94 222L94 186Z" fill="#6c285b" stroke="#6c285b"></path><path d="M42 406L78 450L100 406Z" fill="#572859" stroke="#572859"></path><path d="M127 49L92 80L121 78Z" fill="#101d36" stroke="#101d36"></path><path d="M94 131L57 168L94 186Z" fill="#81275a" stroke="#81275a"></path><path d="M95 36L92 80L127 49Z" fill="#942756" stroke="#942756"></path><path d="M712 450L766 450L761 409Z" fill="#a6294f" stroke="#a6294f"></path><path d="M807 410L821 357L763 355Z" fill="#432754" stroke="#432754"></path><path d="M847 307L848 257L813 268Z" fill="#942756" stroke="#942756"></path><path d="M56 122L57 168L94 131Z" fill="#101d36" stroke="#101d36"></path><path d="M802 167L802 131L758 131Z" fill="#a6294f" stroke="#a6294f"></path><path d="M820 103L802 131L856 121Z" fill="#6c285b" stroke="#6c285b"></path><path d="M178 0L130 0L184 40Z" fill="#81275a" stroke="#81275a"></path><path d="M57 168L37 231L94 222Z" fill="#30254c" stroke="#30254c"></path><path d="M54 84L56 122L92 80Z" fill="#6c285b" stroke="#6c285b"></path><path d="M92 80L56 122L94 131Z" fill="#101d36" stroke="#101d36"></path><path d="M0 189L0 234L37 231Z" fill="#6c285b" stroke="#6c285b"></path><path d="M807 410L763 355L761 409Z" fill="#101d36" stroke="#101d36"></path><path d="M813 268L848 257L799 231Z" fill="#a6294f" stroke="#a6294f"></path><path d="M37 231L32 258L89 279Z" fill="#101d36" stroke="#101d36"></path><path d="M0 234L32 258L37 231Z" fill="#101d36" stroke="#101d36"></path><path d="M130 0L95 36L127 49Z" fill="#942756" stroke="#942756"></path><path d="M766 450L807 410L761 409Z" fill="#1e2142" stroke="#1e2142"></path><path d="M42 406L100 406L78 352Z" fill="#1e2142" stroke="#1e2142"></path><path d="M100 406L78 450L130 450Z" fill="#942756" stroke="#942756"></path><path d="M42 365L78 352L56 319Z" fill="#942756" stroke="#942756"></path><path d="M0 327L42 365L56 319Z" fill="#071729" stroke="#071729"></path><path d="M847 307L798 322L821 357Z" fill="#572859" stroke="#572859"></path><path d="M847 307L813 268L798 322Z" fill="#1e2142" stroke="#1e2142"></path><path d="M859 173L802 131L802 167Z" fill="#101d36" stroke="#101d36"></path><path d="M802 131L820 103L766 101Z" fill="#30254c" stroke="#30254c"></path><path d="M760 58L774 0L722 49Z" fill="#432754" stroke="#432754"></path><path d="M95 36L54 84L92 80Z" fill="#942756" stroke="#942756"></path><path d="M0 189L37 231L57 168Z" fill="#101d36" stroke="#101d36"></path><path d="M868 369L847 307L821 357Z" fill="#071729" stroke="#071729"></path><path d="M42 365L42 406L78 352Z" fill="#432754" stroke="#432754"></path><path d="M0 369L42 406L42 365Z" fill="#a6294f" stroke="#a6294f"></path><path d="M42 406L57 450L78 450Z" fill="#1e2142" stroke="#1e2142"></path><path d="M807 35L774 0L760 58Z" fill="#a6294f" stroke="#a6294f"></path><path d="M900 259L861 234L848 257Z" fill="#572859" stroke="#572859"></path><path d="M848 257L861 234L799 231Z" fill="#00101c" stroke="#00101c"></path><path d="M766 450L818 450L807 410Z" fill="#572859" stroke="#572859"></path><path d="M864 412L868 369L821 357Z" fill="#a6294f" stroke="#a6294f"></path><path d="M861 234L859 173L799 231Z" fill="#00101c" stroke="#00101c"></path><path d="M820 103L807 35L760 58Z" fill="#1e2142" stroke="#1e2142"></path><path d="M851 50L807 35L820 103Z" fill="#071729" stroke="#071729"></path><path d="M0 189L57 168L0 132Z" fill="#6c285b" stroke="#6c285b"></path><path d="M32 258L0 280L56 319Z" fill="#a6294f" stroke="#a6294f"></path><path d="M0 234L0 280L32 258Z" fill="#942756" stroke="#942756"></path><path d="M95 36L42 40L54 84Z" fill="#071729" stroke="#071729"></path><path d="M0 132L57 168L56 122Z" fill="#572859" stroke="#572859"></path><path d="M130 0L82 0L95 36Z" fill="#432754" stroke="#432754"></path><path d="M0 132L56 122L0 90Z" fill="#81275a" stroke="#81275a"></path><path d="M0 280L0 327L56 319Z" fill="#572859" stroke="#572859"></path><path d="M42 406L0 450L57 450Z" fill="#00101c" stroke="#00101c"></path><path d="M859 173L856 121L802 131Z" fill="#a6294f" stroke="#a6294f"></path><path d="M82 0L42 40L95 36Z" fill="#00101c" stroke="#00101c"></path><path d="M0 327L0 369L42 365Z" fill="#101d36" stroke="#101d36"></path><path d="M864 412L821 357L807 410Z" fill="#30254c" stroke="#30254c"></path><path d="M847 307L900 259L848 257Z" fill="#30254c" stroke="#30254c"></path><path d="M900 137L856 121L859 173Z" fill="#572859" stroke="#572859"></path><path d="M0 90L56 122L54 84Z" fill="#432754" stroke="#432754"></path><path d="M863 0L805 0L807 35Z" fill="#30254c" stroke="#30254c"></path><path d="M807 35L805 0L774 0Z" fill="#432754" stroke="#432754"></path><path d="M818 450L842 450L807 410Z" fill="#942756" stroke="#942756"></path><path d="M842 450L864 412L807 410Z" fill="#1e2142" stroke="#1e2142"></path><path d="M856 121L861 91L820 103Z" fill="#101d36" stroke="#101d36"></path><path d="M900 101L861 91L856 121Z" fill="#071729" stroke="#071729"></path><path d="M900 219L859 173L861 234Z" fill="#572859" stroke="#572859"></path><path d="M0 369L0 413L42 406Z" fill="#00101c" stroke="#00101c"></path><path d="M82 0L48 0L42 40Z" fill="#a6294f" stroke="#a6294f"></path><path d="M0 47L0 90L54 84Z" fill="#432754" stroke="#432754"></path><path d="M0 47L54 84L42 40Z" fill="#071729" stroke="#071729"></path><path d="M861 91L851 50L820 103Z" fill="#81275a" stroke="#81275a"></path><path d="M900 316L847 307L900 348Z" fill="#81275a" stroke="#81275a"></path><path d="M900 316L900 259L847 307Z" fill="#432754" stroke="#432754"></path><path d="M900 259L900 219L861 234Z" fill="#101d36" stroke="#101d36"></path><path d="M861 91L900 48L851 50Z" fill="#572859" stroke="#572859"></path><path d="M900 348L847 307L868 369Z" fill="#1e2142" stroke="#1e2142"></path><path d="M900 219L900 170L859 173Z" fill="#942756" stroke="#942756"></path><path d="M0 413L0 450L42 406Z" fill="#101d36" stroke="#101d36"></path><path d="M900 411L900 348L868 369Z" fill="#a6294f" stroke="#a6294f"></path><path d="M0 0L0 47L42 40Z" fill="#432754" stroke="#432754"></path><path d="M900 170L900 137L859 173Z" fill="#30254c" stroke="#30254c"></path><path d="M900 137L900 101L856 121Z" fill="#81275a" stroke="#81275a"></path><path d="M851 50L863 0L807 35Z" fill="#101d36" stroke="#101d36"></path><path d="M864 412L900 411L868 369Z" fill="#00101c" stroke="#00101c"></path><path d="M900 450L900 411L864 412Z" fill="#30254c" stroke="#30254c"></path><path d="M900 48L863 0L851 50Z" fill="#a6294f" stroke="#a6294f"></path><path d="M48 0L0 0L42 40Z" fill="#30254c" stroke="#30254c"></path><path d="M842 450L900 450L864 412Z" fill="#432754" stroke="#432754"></path><path d="M900 101L900 48L861 91Z" fill="#00101c" stroke="#00101c"></path><path d="M900 48L900 0L863 0Z" fill="#572859" stroke="#572859"></path></g></svg>