<svg id="visual" viewBox="0 0 450 900" width="450" height="900" xmlns="http://www.w3.org/2000/svg" xmlns:xlink="http://www.w3.org/1999/xlink" version="1.1"><path d="M391 900L400 0L450 0L450 900Z" fill="#001220"></path><path d="M368 900L377 0L401 0L392 900Z" fill="#044659"></path><path d="M341 900L337 0L378 0L369 900Z" fill="#00828c"></path><path d="M319 900L300 0L338 0L342 900Z" fill="#00c093"></path><path d="M296 900L274 0L301 0L320 900Z" fill="#00cc8e"></path><path d="M260 900L251 0L275 0L297 900Z" fill="#00c093"></path><path d="M184 900L152 0L252 0L261 900Z" fill="#00828c"></path><path d="M62 900L71 0L153 0L185 900Z" fill="#044659"></path><path d="M0 900L0 0L72 0L63 900Z" fill="#001220"></path></svg>