<svg id="visual" viewBox="0 0 450 900" width="450" height="900" xmlns="http://www.w3.org/2000/svg" xmlns:xlink="http://www.w3.org/1999/xlink" version="1.1"><path d="M418 900L414.2 878.5C410.3 857 402.7 814 402.7 771.2C402.7 728.3 410.3 685.7 412.7 642.8C415 600 412 557 408.2 514.2C404.3 471.3 399.7 428.7 397.3 385.8C395 343 395 300 395.8 257.2C396.7 214.3 398.3 171.7 402.2 128.8C406 86 412 43 415 21.5L418 0L450 0L450 21.5C450 43 450 86 450 128.8C450 171.7 450 214.3 450 257.2C450 300 450 343 450 385.8C450 428.7 450 471.3 450 514.2C450 557 450 600 450 642.8C450 685.7 450 728.3 450 771.2C450 814 450 857 450 878.5L450 900Z" fill="#001122"></path><path d="M292 900L285.2 878.5C278.3 857 264.7 814 264.7 771.2C264.7 728.3 278.3 685.7 286.5 642.8C294.7 600 297.3 557 300.3 514.2C303.3 471.3 306.7 428.7 303.8 385.8C301 343 292 300 286.7 257.2C281.3 214.3 279.7 171.7 278.8 128.8C278 86 278 43 278 21.5L278 0L419 0L416 21.5C413 43 407 86 403.2 128.8C399.3 171.7 397.7 214.3 396.8 257.2C396 300 396 343 398.3 385.8C400.7 428.7 405.3 471.3 409.2 514.2C413 557 416 600 413.7 642.8C411.3 685.7 403.7 728.3 403.7 771.2C403.7 814 411.3 857 415.2 878.5L419 900Z" fill="#007f98"></path><path d="M193 900L183.2 878.5C173.3 857 153.7 814 153.7 771.2C153.7 728.3 173.3 685.7 180.8 642.8C188.3 600 183.7 557 179.8 514.2C176 471.3 173 428.7 170.8 385.8C168.7 343 167.3 300 171.8 257.2C176.3 214.3 186.7 171.7 186.7 128.8C186.7 86 176.3 43 171.2 21.5L166 0L279 0L279 21.5C279 43 279 86 279.8 128.8C280.7 171.7 282.3 214.3 287.7 257.2C293 300 302 343 304.8 385.8C307.7 428.7 304.3 471.3 301.3 514.2C298.3 557 295.7 600 287.5 642.8C279.3 685.7 265.7 728.3 265.7 771.2C265.7 814 279.3 857 286.2 878.5L293 900Z" fill="#00ffc1"></path><path d="M143 900L135.5 878.5C128 857 113 814 110.8 771.2C108.7 728.3 119.3 685.7 126.8 642.8C134.3 600 138.7 557 135.7 514.2C132.7 471.3 122.3 428.7 120.8 385.8C119.3 343 126.7 300 131.2 257.2C135.7 214.3 137.3 171.7 136.7 128.8C136 86 133 43 131.5 21.5L130 0L167 0L172.2 21.5C177.3 43 187.7 86 187.7 128.8C187.7 171.7 177.3 214.3 172.8 257.2C168.3 300 169.7 343 171.8 385.8C174 428.7 177 471.3 180.8 514.2C184.7 557 189.3 600 181.8 642.8C174.3 685.7 154.7 728.3 154.7 771.2C154.7 814 174.3 857 184.2 878.5L194 900Z" fill="#00ffc1"></path><path d="M58 900L55.7 878.5C53.3 857 48.7 814 50.8 771.2C53 728.3 62 685.7 61.2 642.8C60.3 600 49.7 557 43.7 514.2C37.7 471.3 36.3 428.7 38.7 385.8C41 343 47 300 50.8 257.2C54.7 214.3 56.3 171.7 58.7 128.8C61 86 64 43 65.5 21.5L67 0L131 0L132.5 21.5C134 43 137 86 137.7 128.8C138.3 171.7 136.7 214.3 132.2 257.2C127.7 300 120.3 343 121.8 385.8C123.3 428.7 133.7 471.3 136.7 514.2C139.7 557 135.3 600 127.8 642.8C120.3 685.7 109.7 728.3 111.8 771.2C114 814 129 857 136.5 878.5L144 900Z" fill="#007f98"></path><path d="M0 900L0 878.5C0 857 0 814 0 771.2C0 728.3 0 685.7 0 642.8C0 600 0 557 0 514.2C0 471.3 0 428.7 0 385.8C0 343 0 300 0 257.2C0 214.3 0 171.7 0 128.8C0 86 0 43 0 21.5L0 0L68 0L66.5 21.5C65 43 62 86 59.7 128.8C57.3 171.7 55.7 214.3 51.8 257.2C48 300 42 343 39.7 385.8C37.3 428.7 38.7 471.3 44.7 514.2C50.7 557 61.3 600 62.2 642.8C63 685.7 54 728.3 51.8 771.2C49.7 814 54.3 857 56.7 878.5L59 900Z" fill="#001122"></path></svg>