<svg id="visual" viewBox="0 0 900 450" width="900" height="450" xmlns="http://www.w3.org/2000/svg" xmlns:xlink="http://www.w3.org/1999/xlink" version="1.1"><rect x="0" y="0" width="900" height="450" fill="#001122"></rect><defs><linearGradient id="grad1_0" x1="50%" y1="0%" x2="100%" y2="100%"><stop offset="10%" stop-color="#fbae3c" stop-opacity="1"></stop><stop offset="90%" stop-color="#fbae3c" stop-opacity="1"></stop></linearGradient></defs><defs><linearGradient id="grad1_1" x1="50%" y1="0%" x2="100%" y2="100%"><stop offset="10%" stop-color="#fbae3c" stop-opacity="1"></stop><stop offset="90%" stop-color="#f07d51" stop-opacity="1"></stop></linearGradient></defs><defs><linearGradient id="grad1_2" x1="50%" y1="0%" x2="100%" y2="100%"><stop offset="10%" stop-color="#cd5864" stop-opacity="1"></stop><stop offset="90%" stop-color="#f07d51" stop-opacity="1"></stop></linearGradient></defs><defs><linearGradient id="grad1_3" x1="50%" y1="0%" x2="100%" y2="100%"><stop offset="10%" stop-color="#cd5864" stop-opacity="1"></stop><stop offset="90%" stop-color="#98426a" stop-opacity="1"></stop></linearGradient></defs><defs><linearGradient id="grad1_4" x1="50%" y1="0%" x2="100%" y2="100%"><stop offset="10%" stop-color="#5d3560" stop-opacity="1"></stop><stop offset="90%" stop-color="#98426a" stop-opacity="1"></stop></linearGradient></defs><defs><linearGradient id="grad1_5" x1="50%" y1="0%" x2="100%" y2="100%"><stop offset="10%" stop-color="#5d3560" stop-opacity="1"></stop><stop offset="90%" stop-color="#272646" stop-opacity="1"></stop></linearGradient></defs><defs><linearGradient id="grad1_6" x1="50%" y1="0%" x2="100%" y2="100%"><stop offset="10%" stop-color="#001122" stop-opacity="1"></stop><stop offset="90%" stop-color="#272646" stop-opacity="1"></stop></linearGradient></defs><defs><linearGradient id="grad2_0" x1="0%" y1="0%" x2="50%" y2="100%"><stop offset="10%" stop-color="#fbae3c" stop-opacity="1"></stop><stop offset="90%" stop-color="#fbae3c" stop-opacity="1"></stop></linearGradient></defs><defs><linearGradient id="grad2_1" x1="0%" y1="0%" x2="50%" y2="100%"><stop offset="10%" stop-color="#f07d51" stop-opacity="1"></stop><stop offset="90%" stop-color="#fbae3c" stop-opacity="1"></stop></linearGradient></defs><defs><linearGradient id="grad2_2" x1="0%" y1="0%" x2="50%" y2="100%"><stop offset="10%" stop-color="#f07d51" stop-opacity="1"></stop><stop offset="90%" stop-color="#cd5864" stop-opacity="1"></stop></linearGradient></defs><defs><linearGradient id="grad2_3" x1="0%" y1="0%" x2="50%" y2="100%"><stop offset="10%" stop-color="#98426a" stop-opacity="1"></stop><stop offset="90%" stop-color="#cd5864" stop-opacity="1"></stop></linearGradient></defs><defs><linearGradient id="grad2_4" x1="0%" y1="0%" x2="50%" y2="100%"><stop offset="10%" stop-color="#98426a" stop-opacity="1"></stop><stop offset="90%" stop-color="#5d3560" stop-opacity="1"></stop></linearGradient></defs><defs><linearGradient id="grad2_5" x1="0%" y1="0%" x2="50%" y2="100%"><stop offset="10%" stop-color="#272646" stop-opacity="1"></stop><stop offset="90%" stop-color="#5d3560" stop-opacity="1"></stop></linearGradient></defs><defs><linearGradient id="grad2_6" x1="0%" y1="0%" x2="50%" y2="100%"><stop offset="10%" stop-color="#272646" stop-opacity="1"></stop><stop offset="90%" stop-color="#001122" stop-opacity="1"></stop></linearGradient></defs><g transform="translate(900, 0)"><path d="M0 450C-25.9 454.3 -51.7 458.6 -69.1 436.6C-86.6 414.5 -95.6 366 -115.3 354.7C-135 343.5 -165.4 369.4 -189.3 371.5C-213.3 373.7 -230.8 352.2 -232.8 320.4C-234.7 288.5 -221.2 246.3 -227.7 227.7C-234.2 209.1 -260.7 214 -299.3 217.5C-338 221 -388.8 223 -401 204.3C-413.1 185.6 -386.5 146.2 -360.5 117.1C-334.4 88 -308.9 69.1 -324 51.3C-339 33.5 -394.5 16.7 -450 0L0 0Z" fill="#111c34"></path><path d="M0 385.7C-22.2 389.4 -44.3 393.1 -59.3 374.2C-74.2 355.3 -81.9 313.7 -98.8 304.1C-115.7 294.4 -141.7 316.6 -162.3 318.5C-182.8 320.3 -197.8 301.9 -199.5 274.6C-201.2 247.3 -189.6 211.1 -195.2 195.2C-200.7 179.2 -223.4 183.4 -256.6 186.4C-289.7 189.4 -333.3 191.1 -343.7 175.1C-354.1 159.1 -331.3 125.3 -309 100.4C-286.6 75.4 -264.8 59.2 -277.7 44C-290.6 28.7 -338.1 14.4 -385.7 0L0 0Z" fill="#412e55"></path><path d="M0 321.4C-18.5 324.5 -36.9 327.6 -49.4 311.8C-61.8 296.1 -68.3 261.4 -82.3 253.4C-96.4 245.3 -118.1 263.8 -135.2 265.4C-152.3 267 -164.8 251.6 -166.3 228.8C-167.7 206.1 -158 175.9 -162.6 162.6C-167.3 149.3 -186.2 152.9 -213.8 155.3C-241.4 157.8 -277.7 159.3 -286.4 145.9C-295.1 132.6 -276.1 104.5 -257.5 83.7C-238.9 62.9 -220.7 49.4 -231.4 36.7C-242.1 23.9 -281.8 12 -321.4 0L0 0Z" fill="#7b3b68"></path><path d="M0 257.1C-14.8 259.6 -29.6 262.1 -39.5 249.5C-49.5 236.8 -54.6 209.2 -65.9 202.7C-77.1 196.3 -94.5 211.1 -108.2 212.3C-121.9 213.6 -131.9 201.3 -133 183.1C-134.1 164.9 -126.4 140.8 -130.1 130.1C-133.8 119.5 -149 122.3 -171 124.3C-193.1 126.3 -222.2 127.4 -229.1 116.7C-236 106.1 -220.8 83.6 -206 66.9C-191.1 50.3 -176.5 39.5 -185.1 29.3C-193.7 19.1 -225.4 9.6 -257.1 0L0 0Z" fill="#b44b69"></path><path d="M0 192.9C-11.1 194.7 -22.2 196.6 -29.6 187.1C-37.1 177.6 -41 156.9 -49.4 152C-57.8 147.2 -70.9 158.3 -81.1 159.2C-91.4 160.2 -98.9 151 -99.8 137.3C-100.6 123.6 -94.8 105.6 -97.6 97.6C-100.4 89.6 -111.7 91.7 -128.3 93.2C-144.9 94.7 -166.6 95.6 -171.8 87.6C-177 79.5 -165.6 62.7 -154.5 50.2C-143.3 37.7 -132.4 29.6 -138.8 22C-145.3 14.4 -169.1 7.2 -192.9 0L0 0Z" fill="#e1685b"></path><path d="M0 128.6C-7.4 129.8 -14.8 131 -19.8 124.7C-24.7 118.4 -27.3 104.6 -32.9 101.4C-38.6 98.1 -47.2 105.5 -54.1 106.2C-60.9 106.8 -65.9 100.6 -66.5 91.5C-67.1 82.4 -63.2 70.4 -65.1 65.1C-66.9 59.7 -74.5 61.1 -85.5 62.1C-96.6 63.1 -111.1 63.7 -114.6 58.4C-118 53 -110.4 41.8 -103 33.5C-95.5 25.1 -88.3 19.7 -92.6 14.7C-96.9 9.6 -112.7 4.8 -128.6 0L0 0Z" fill="#f99446"></path><path d="M0 64.3C-3.7 64.9 -7.4 65.5 -9.9 62.4C-12.4 59.2 -13.7 52.3 -16.5 50.7C-19.3 49.1 -23.6 52.8 -27 53.1C-30.5 53.4 -33 50.3 -33.3 45.8C-33.5 41.2 -31.6 35.2 -32.5 32.5C-33.5 29.9 -37.2 30.6 -42.8 31.1C-48.3 31.6 -55.5 31.9 -57.3 29.2C-59 26.5 -55.2 20.9 -51.5 16.7C-47.8 12.6 -44.1 9.9 -46.3 7.3C-48.4 4.8 -56.4 2.4 -64.3 0L0 0Z" fill="#fbae3c"></path></g><g transform="translate(0, 450)"><path d="M0 -450C14.3 -395.2 28.6 -340.4 55.2 -348.7C81.8 -356.9 120.7 -428.2 139.1 -428C157.4 -427.8 155.2 -356 164.8 -323.4C174.4 -290.8 195.8 -297.3 211 -290.4C226.2 -283.6 235.3 -263.3 252.4 -252.4C269.6 -241.5 295 -240 323.6 -235.1C352.2 -230.3 384.2 -222.1 400.1 -203.8C416 -185.6 415.9 -157.2 402.3 -130.7C388.7 -104.2 361.7 -79.7 367.4 -58.2C373.1 -36.7 411.6 -18.4 450 0L0 0Z" fill="#111c34"></path><path d="M0 -385.7C12.3 -338.7 24.5 -291.8 47.3 -298.8C70.1 -305.9 103.5 -367 119.2 -366.8C134.9 -366.7 133 -305.2 141.3 -277.2C149.5 -249.3 167.8 -254.8 180.9 -248.9C193.9 -243.1 201.6 -225.7 216.4 -216.4C231.1 -207 252.8 -205.7 277.4 -201.5C301.9 -197.4 329.3 -190.4 342.9 -174.7C356.5 -159.1 356.5 -134.7 344.8 -112C333.2 -89.3 310 -68.3 314.9 -49.9C319.8 -31.5 352.8 -15.7 385.7 0L0 0Z" fill="#412e55"></path><path d="M0 -321.4C10.2 -282.3 20.4 -243.1 39.4 -249C58.4 -254.9 86.2 -305.8 99.3 -305.7C112.4 -305.5 110.9 -254.3 117.7 -231C124.6 -207.7 139.9 -212.4 150.7 -207.5C161.6 -202.5 168 -188.1 180.3 -180.3C192.6 -172.5 210.7 -171.4 231.1 -167.9C251.6 -164.5 274.4 -158.6 285.8 -145.6C297.1 -132.6 297 -112.3 287.4 -93.4C277.7 -74.5 258.4 -56.9 262.4 -41.6C266.5 -26.2 294 -13.1 321.4 0L0 0Z" fill="#7b3b68"></path><path d="M0 -257.1C8.2 -225.8 16.4 -194.5 31.6 -199.2C46.8 -203.9 69 -244.7 79.5 -244.6C89.9 -244.4 88.7 -203.5 94.2 -184.8C99.7 -166.2 111.9 -169.9 120.6 -166C129.3 -162 134.4 -150.5 144.2 -144.2C154.1 -138 168.6 -137.1 184.9 -134.4C201.3 -131.6 219.5 -126.9 228.6 -116.5C237.7 -106 237.6 -89.8 229.9 -74.7C222.1 -59.6 206.7 -45.5 210 -33.3C213.2 -21 235.2 -10.5 257.1 0L0 0Z" fill="#b44b69"></path><path d="M0 -192.9C6.1 -169.4 12.3 -145.9 23.7 -149.4C35.1 -153 51.7 -183.5 59.6 -183.4C67.5 -183.3 66.5 -152.6 70.6 -138.6C74.7 -124.6 83.9 -127.4 90.4 -124.5C97 -121.5 100.8 -112.9 108.2 -108.2C115.6 -103.5 126.4 -102.8 138.7 -100.8C151 -98.7 164.6 -95.2 171.5 -87.4C178.3 -79.5 178.2 -67.4 172.4 -56C166.6 -44.7 155 -34.1 157.5 -24.9C159.9 -15.7 176.4 -7.9 192.9 0L0 0Z" fill="#e1685b"></path><path d="M0 -128.6C4.1 -112.9 8.2 -97.3 15.8 -99.6C23.4 -102 34.5 -122.3 39.7 -122.3C45 -122.2 44.3 -101.7 47.1 -92.4C49.8 -83.1 55.9 -84.9 60.3 -83C64.6 -81 67.2 -75.2 72.1 -72.1C77 -69 84.3 -68.6 92.5 -67.2C100.6 -65.8 109.8 -63.5 114.3 -58.2C118.8 -53 118.8 -44.9 114.9 -37.3C111.1 -29.8 103.3 -22.8 105 -16.6C106.6 -10.5 117.6 -5.2 128.6 0L0 0Z" fill="#f99446"></path><path d="M0 -64.3C2 -56.5 4.1 -48.6 7.9 -49.8C11.7 -51 17.2 -61.2 19.9 -61.1C22.5 -61.1 22.2 -50.9 23.5 -46.2C24.9 -41.5 28 -42.5 30.1 -41.5C32.3 -40.5 33.6 -37.6 36.1 -36.1C38.5 -34.5 42.1 -34.3 46.2 -33.6C50.3 -32.9 54.9 -31.7 57.2 -29.1C59.4 -26.5 59.4 -22.5 57.5 -18.7C55.5 -14.9 51.7 -11.4 52.5 -8.3C53.3 -5.2 58.8 -2.6 64.3 0L0 0Z" fill="#fbae3c"></path></g></svg>