<svg id="visual" viewBox="0 0 450 900" width="450" height="900" xmlns="http://www.w3.org/2000/svg" xmlns:xlink="http://www.w3.org/1999/xlink" version="1.1"><rect width="450" height="900" fill="#001122"></rect><g><g transform="translate(4 505)"><path d="M50.3 -58.5C63.6 -48.8 71.6 -31.4 73 -14.3C74.3 2.9 69 19.8 60.5 35.3C52 50.8 40.3 64.8 24.5 72.9C8.7 81.1 -11.2 83.3 -26.7 76.4C-42.2 69.4 -53.2 53.2 -59.5 37C-65.7 20.7 -67.3 4.3 -65.4 -12.4C-63.4 -29 -58.1 -45.9 -46.6 -56C-35.2 -66 -17.6 -69.1 0.5 -69.6C18.5 -70.2 37 -68.2 50.3 -58.5Z" fill="#b33535"></path></g><g transform="translate(105 766)"><path d="M42.4 -50.7C55.3 -39.6 66.5 -26.7 69.7 -11.9C72.8 3 67.8 19.6 59.4 34.5C51.1 49.4 39.3 62.6 24.3 69.1C9.2 75.6 -9.1 75.4 -26.7 70.3C-44.3 65.2 -61.2 55.1 -71 40C-80.9 24.9 -83.8 4.8 -78.6 -11.9C-73.3 -28.7 -60 -42.1 -45.5 -52.9C-31.1 -63.7 -15.5 -71.9 -0.4 -71.4C14.7 -70.9 29.4 -61.7 42.4 -50.7Z" fill="#b33535"></path></g><g transform="translate(368 220)"><path d="M50.3 -63.6C61.6 -50.4 64.8 -31.2 67.1 -12.6C69.4 5.9 70.8 23.8 63.9 38C57.1 52.3 41.9 62.9 25.5 68C9.1 73.1 -8.6 72.7 -25.9 67.8C-43.2 63 -60.1 53.7 -69.9 39.2C-79.6 24.7 -82.2 4.9 -78.7 -13.7C-75.2 -32.3 -65.7 -49.6 -51.6 -62.3C-37.4 -75 -18.7 -83 0.4 -83.4C19.5 -83.9 38.9 -76.7 50.3 -63.6Z" fill="#b33535"></path></g><g transform="translate(354 806)"><path d="M48.3 -57.6C60.4 -47.4 66.4 -30.1 70.4 -11.8C74.4 6.5 76.2 25.8 68.7 40.5C61.2 55.2 44.4 65.4 26.2 71.9C8.1 78.5 -11.3 81.4 -27.1 75.3C-42.8 69.2 -55 53.9 -63.6 37.4C-72.3 21 -77.6 3.2 -75.5 -14.1C-73.4 -31.4 -63.9 -48.1 -50.1 -58.1C-36.3 -68.1 -18.2 -71.2 0 -71.2C18.1 -71.1 36.2 -67.9 48.3 -57.6Z" fill="#b33535"></path></g><g transform="translate(407 17)"><path d="M46.9 -54.2C60.2 -44.7 70 -29.4 74.5 -11.9C79 5.5 78.3 25.2 69.7 40.4C61.1 55.6 44.6 66.5 26.5 73.2C8.4 79.9 -11.2 82.4 -27 75.9C-42.7 69.4 -54.5 53.8 -60.7 37.7C-66.9 21.5 -67.5 4.8 -65.6 -12.5C-63.7 -29.8 -59.3 -47.6 -48 -57.5C-36.6 -67.3 -18.3 -69.1 -0.8 -68.2C16.8 -67.3 33.6 -63.7 46.9 -54.2Z" fill="#b33535"></path></g><g transform="translate(26 214)"><path d="M51.6 -61.6C66.3 -49.2 77.2 -32.4 81.1 -13.8C84.9 4.8 81.7 25 71.3 39.4C60.9 53.7 43.3 62.1 26.1 65.8C8.9 69.6 -7.9 68.7 -24.3 64C-40.7 59.2 -56.6 50.6 -67.3 36.6C-78.1 22.7 -83.7 3.5 -79.8 -13.3C-75.9 -30.1 -62.6 -44.4 -47.7 -56.7C-32.8 -69.1 -16.4 -79.4 1 -80.7C18.5 -81.9 37 -74 51.6 -61.6Z" fill="#b33535"></path></g><g transform="translate(221 429)"><path d="M52.6 -62.7C67.5 -50.3 78.4 -33 79.2 -15.8C80 1.4 70.8 18.5 60.4 33.2C49.9 48 38.2 60.4 23.2 67.3C8.3 74.3 -9.9 75.8 -27.1 71.1C-44.3 66.3 -60.5 55.3 -69.1 40.1C-77.7 24.8 -78.7 5.4 -75 -12.8C-71.2 -30.9 -62.7 -47.8 -49.5 -60.5C-36.2 -73.3 -18.1 -81.9 0.4 -82.4C18.9 -82.9 37.8 -75.2 52.6 -62.7Z" fill="#b33535"></path></g><g transform="translate(441 503)"><path d="M50.3 -59.2C62.9 -49.4 69.1 -31.4 72.5 -12.7C75.9 6 76.5 25.2 68.4 39.7C60.3 54.1 43.5 63.7 26.1 68.7C8.8 73.7 -9.2 74.1 -26.3 69.2C-43.4 64.3 -59.7 54.1 -68 39.4C-76.3 24.8 -76.6 5.6 -72.7 -12.1C-68.8 -29.9 -60.6 -46.2 -47.8 -55.9C-35 -65.6 -17.5 -68.6 0.7 -69.4C18.9 -70.3 37.8 -68.9 50.3 -59.2Z" fill="#b33535"></path></g><g transform="translate(276 616)"><path d="M43.5 -53.6C55 -42.2 62.1 -27.2 66.8 -10.3C71.6 6.6 74.2 25.5 66.8 39C59.5 52.6 42.4 60.9 25.6 64.5C8.8 68.1 -7.5 66.9 -21.8 61.2C-36 55.4 -48.2 45.1 -55.9 32.1C-63.6 19.1 -66.9 3.4 -64.3 -11.3C-61.7 -26 -53.1 -39.6 -41.4 -51C-29.7 -62.5 -14.9 -71.8 0.6 -72.4C16 -73.1 32 -65.1 43.5 -53.6Z" fill="#b33535"></path></g><g transform="translate(207 42)"><path d="M47.5 -56.5C60.2 -46 68.2 -29.7 72.1 -12C76 5.6 75.8 24.6 67.3 38.4C58.8 52.1 41.9 60.5 24.9 65.4C7.9 70.3 -9.4 71.7 -26.4 67.6C-43.4 63.6 -60.3 54 -69.9 39.4C-79.4 24.7 -81.7 5 -76.3 -11.3C-70.8 -27.5 -57.5 -40.1 -43.5 -50.4C-29.5 -60.7 -14.8 -68.6 1.3 -70.2C17.4 -71.8 34.8 -67 47.5 -56.5Z" fill="#b33535"></path></g><g transform="translate(10 20)"><path d="M48.4 -56.8C61 -47.2 68.3 -30.2 69.8 -13.5C71.3 3.2 67.1 19.8 59.5 35.7C51.9 51.7 40.9 67 25.5 74.6C10 82.3 -9.9 82.1 -24.9 74.2C-39.8 66.2 -49.8 50.4 -56.8 34.6C-63.7 18.8 -67.5 3.1 -65.4 -12C-63.2 -27.1 -55.2 -41.6 -43.3 -51.3C-31.4 -61.1 -15.7 -66 1.1 -67.3C17.9 -68.7 35.9 -66.4 48.4 -56.8Z" fill="#b33535"></path></g></g></svg>