<svg id="visual" viewBox="0 0 900 450" width="900" height="450" xmlns="http://www.w3.org/2000/svg" xmlns:xlink="http://www.w3.org/1999/xlink" version="1.1"><rect x="0" y="0" width="900" height="450" fill="#001220"></rect><path d="M0 313L21.5 314.3C43 315.7 86 318.3 128.8 316.3C171.7 314.3 214.3 307.7 257.2 303.3C300 299 343 297 385.8 293C428.7 289 471.3 283 514.2 280.8C557 278.7 600 280.3 642.8 279.7C685.7 279 728.3 276 771.2 281C814 286 857 299 878.5 305.5L900 312L900 451L878.5 451C857 451 814 451 771.2 451C728.3 451 685.7 451 642.8 451C600 451 557 451 514.2 451C471.3 451 428.7 451 385.8 451C343 451 300 451 257.2 451C214.3 451 171.7 451 128.8 451C86 451 43 451 21.5 451L0 451Z" fill="#63e3ff"></path><path d="M0 333L21.5 335.3C43 337.7 86 342.3 128.8 340.5C171.7 338.7 214.3 330.3 257.2 323.7C300 317 343 312 385.8 312.3C428.7 312.7 471.3 318.3 514.2 319.3C557 320.3 600 316.7 642.8 317.2C685.7 317.7 728.3 322.3 771.2 325C814 327.7 857 328.3 878.5 328.7L900 329L900 451L878.5 451C857 451 814 451 771.2 451C728.3 451 685.7 451 642.8 451C600 451 557 451 514.2 451C471.3 451 428.7 451 385.8 451C343 451 300 451 257.2 451C214.3 451 171.7 451 128.8 451C86 451 43 451 21.5 451L0 451Z" fill="#2fb7be"></path><path d="M0 363L21.5 361C43 359 86 355 128.8 357.3C171.7 359.7 214.3 368.3 257.2 367.2C300 366 343 355 385.8 354.7C428.7 354.3 471.3 364.7 514.2 362.7C557 360.7 600 346.3 642.8 345.3C685.7 344.3 728.3 356.7 771.2 359.5C814 362.3 857 355.7 878.5 352.3L900 349L900 451L878.5 451C857 451 814 451 771.2 451C728.3 451 685.7 451 642.8 451C600 451 557 451 514.2 451C471.3 451 428.7 451 385.8 451C343 451 300 451 257.2 451C214.3 451 171.7 451 128.8 451C86 451 43 451 21.5 451L0 451Z" fill="#048c80"></path><path d="M0 397L21.5 396.7C43 396.3 86 395.7 128.8 394.2C171.7 392.7 214.3 390.3 257.2 392C300 393.7 343 399.3 385.8 398.5C428.7 397.7 471.3 390.3 514.2 383.8C557 377.3 600 371.7 642.8 373C685.7 374.3 728.3 382.7 771.2 385.5C814 388.3 857 385.7 878.5 384.3L900 383L900 451L878.5 451C857 451 814 451 771.2 451C728.3 451 685.7 451 642.8 451C600 451 557 451 514.2 451C471.3 451 428.7 451 385.8 451C343 451 300 451 257.2 451C214.3 451 171.7 451 128.8 451C86 451 43 451 21.5 451L0 451Z" fill="#006247"></path><path d="M0 428L21.5 425.7C43 423.3 86 418.7 128.8 413.7C171.7 408.7 214.3 403.3 257.2 401.5C300 399.7 343 401.3 385.8 401.8C428.7 402.3 471.3 401.7 514.2 406.2C557 410.7 600 420.3 642.8 423.2C685.7 426 728.3 422 771.2 417.8C814 413.7 857 409.3 878.5 407.2L900 405L900 451L878.5 451C857 451 814 451 771.2 451C728.3 451 685.7 451 642.8 451C600 451 557 451 514.2 451C471.3 451 428.7 451 385.8 451C343 451 300 451 257.2 451C214.3 451 171.7 451 128.8 451C86 451 43 451 21.5 451L0 451Z" fill="#003a15"></path></svg>