<svg id="visual" viewBox="0 0 900 450" width="900" height="450" xmlns="http://www.w3.org/2000/svg" xmlns:xlink="http://www.w3.org/1999/xlink" version="1.1"><rect x="0" y="0" width="900" height="450" fill="#001220"></rect><path d="M0 325L21.5 321.2C43 317.3 86 309.7 128.8 302C171.7 294.3 214.3 286.7 257.2 288.7C300 290.7 343 302.3 385.8 305C428.7 307.7 471.3 301.3 514.2 296C557 290.7 600 286.3 642.8 292C685.7 297.7 728.3 313.3 771.2 321C814 328.7 857 328.3 878.5 328.2L900 328L900 451L878.5 451C857 451 814 451 771.2 451C728.3 451 685.7 451 642.8 451C600 451 557 451 514.2 451C471.3 451 428.7 451 385.8 451C343 451 300 451 257.2 451C214.3 451 171.7 451 128.8 451C86 451 43 451 21.5 451L0 451Z" fill="#69fa8c"></path><path d="M0 313L21.5 315.8C43 318.7 86 324.3 128.8 325.8C171.7 327.3 214.3 324.7 257.2 319.5C300 314.3 343 306.7 385.8 304.8C428.7 303 471.3 307 514.2 308C557 309 600 307 642.8 313.3C685.7 319.7 728.3 334.3 771.2 338C814 341.7 857 334.3 878.5 330.7L900 327L900 451L878.5 451C857 451 814 451 771.2 451C728.3 451 685.7 451 642.8 451C600 451 557 451 514.2 451C471.3 451 428.7 451 385.8 451C343 451 300 451 257.2 451C214.3 451 171.7 451 128.8 451C86 451 43 451 21.5 451L0 451Z" fill="#00e7e4"></path><path d="M0 349L21.5 353C43 357 86 365 128.8 365C171.7 365 214.3 357 257.2 355C300 353 343 357 385.8 362.3C428.7 367.7 471.3 374.3 514.2 373.2C557 372 600 363 642.8 355.3C685.7 347.7 728.3 341.3 771.2 340C814 338.7 857 342.3 878.5 344.2L900 346L900 451L878.5 451C857 451 814 451 771.2 451C728.3 451 685.7 451 642.8 451C600 451 557 451 514.2 451C471.3 451 428.7 451 385.8 451C343 451 300 451 257.2 451C214.3 451 171.7 451 128.8 451C86 451 43 451 21.5 451L0 451Z" fill="#00c6ff"></path><path d="M0 386L21.5 384.3C43 382.7 86 379.3 128.8 378.7C171.7 378 214.3 380 257.2 379.2C300 378.3 343 374.7 385.8 374.3C428.7 374 471.3 377 514.2 379.8C557 382.7 600 385.3 642.8 389.2C685.7 393 728.3 398 771.2 400C814 402 857 401 878.5 400.5L900 400L900 451L878.5 451C857 451 814 451 771.2 451C728.3 451 685.7 451 642.8 451C600 451 557 451 514.2 451C471.3 451 428.7 451 385.8 451C343 451 300 451 257.2 451C214.3 451 171.7 451 128.8 451C86 451 43 451 21.5 451L0 451Z" fill="#009cff"></path><path d="M0 406L21.5 404.5C43 403 86 400 128.8 402.3C171.7 404.7 214.3 412.3 257.2 416.8C300 421.3 343 422.7 385.8 423.2C428.7 423.7 471.3 423.3 514.2 423.3C557 423.3 600 423.7 642.8 421.5C685.7 419.3 728.3 414.7 771.2 410.3C814 406 857 402 878.5 400L900 398L900 451L878.5 451C857 451 814 451 771.2 451C728.3 451 685.7 451 642.8 451C600 451 557 451 514.2 451C471.3 451 428.7 451 385.8 451C343 451 300 451 257.2 451C214.3 451 171.7 451 128.8 451C86 451 43 451 21.5 451L0 451Z" fill="#0066ff"></path></svg>