<svg id="visual" viewBox="0 0 900 450" width="900" height="450" xmlns="http://www.w3.org/2000/svg" xmlns:xlink="http://www.w3.org/1999/xlink" version="1.1"><rect width="900" height="450" fill="#001829"></rect><g><g transform="translate(590 34)"><path d="M0 -127.3L110.2 -63.7L110.2 63.7L0 127.3L-110.2 63.7L-110.2 -63.7Z" fill="none" stroke="#009473" stroke-width="2"></path></g><g transform="translate(368 264)"><path d="M0 -98L84.9 -49L84.9 49L0 98L-84.9 49L-84.9 -49Z" fill="none" stroke="#009473" stroke-width="2"></path></g><g transform="translate(162 83)"><path d="M0 -125L108.3 -62.5L108.3 62.5L0 125L-108.3 62.5L-108.3 -62.5Z" fill="none" stroke="#009473" stroke-width="2"></path></g><g transform="translate(817 358)"><path d="M0 -118L102.2 -59L102.2 59L0 118L-102.2 59L-102.2 -59Z" stroke="#009473" fill="none" stroke-width="2"></path></g><g transform="translate(181 448)"><path d="M0 -108L93.5 -54L93.5 54L0 108L-93.5 54L-93.5 -54Z" stroke="#009473" fill="none" stroke-width="2"></path></g><g transform="translate(861 9)"><path d="M0 -70L60.6 -35L60.6 35L0 70L-60.6 35L-60.6 -35Z" stroke="#009473" fill="none" stroke-width="2"></path></g></g></svg>