<svg id="visual" viewBox="0 0 900 450" width="900" height="450" xmlns="http://www.w3.org/2000/svg" xmlns:xlink="http://www.w3.org/1999/xlink" version="1.1"><path d="M0 19L113 24L225 24L338 19L450 33L563 28L675 19L788 28L900 33L900 0L788 0L675 0L563 0L450 0L338 0L225 0L113 0L0 0Z" fill="#001220"></path><path d="M0 114L113 118L225 150L338 105L450 150L563 145L675 118L788 141L900 132L900 31L788 26L675 17L563 26L450 31L338 17L225 22L113 22L0 17Z" fill="#044659"></path><path d="M0 150L113 145L225 186L338 150L450 199L563 172L675 163L788 168L900 159L900 130L788 139L675 116L563 143L450 148L338 103L225 148L113 116L0 112Z" fill="#00828c"></path><path d="M0 195L113 186L225 240L338 190L450 253L563 226L675 222L788 222L900 199L900 157L788 166L675 161L563 170L450 197L338 148L225 184L113 143L0 148Z" fill="#00c093"></path><path d="M0 222L113 204L225 271L338 213L450 280L563 253L675 244L788 249L900 231L900 197L788 220L675 220L563 224L450 251L338 188L225 238L113 184L0 193Z" fill="#00cc8e"></path><path d="M0 253L113 231L225 312L338 253L450 307L563 289L675 280L788 280L900 258L900 229L788 247L675 242L563 251L450 278L338 211L225 269L113 202L0 220Z" fill="#00c093"></path><path d="M0 361L113 348L225 375L338 357L450 384L563 370L675 375L788 370L900 348L900 256L788 278L675 278L563 287L450 305L338 251L225 310L113 229L0 251Z" fill="#00828c"></path><path d="M0 420L113 424L225 420L338 429L450 429L563 424L675 420L788 424L900 424L900 346L788 368L675 373L563 368L450 382L338 355L225 373L113 346L0 359Z" fill="#044659"></path><path d="M0 451L113 451L225 451L338 451L450 451L563 451L675 451L788 451L900 451L900 422L788 422L675 418L563 422L450 427L338 427L225 418L113 422L0 418Z" fill="#001220"></path></svg>