<svg id="visual" viewBox="0 0 450 900" width="450" height="900" xmlns="http://www.w3.org/2000/svg" xmlns:xlink="http://www.w3.org/1999/xlink" version="1.1"><rect width="450" height="900" fill="#001220"></rect><g><g transform="translate(120 184)"><path d="M0 -59.4L51.4 -29.7L51.4 29.7L0 59.4L-51.4 29.7L-51.4 -29.7Z" fill="#29a684"></path></g><g transform="translate(372 856)"><path d="M0 -49L42.4 -24.5L42.4 24.5L0 49L-42.4 24.5L-42.4 -24.5Z" fill="#29a684"></path></g><g transform="translate(186 68)"><path d="M0 -57L49.4 -28.5L49.4 28.5L0 57L-49.4 28.5L-49.4 -28.5Z" fill="#29a684"></path></g><g transform="translate(396 9)"><path d="M0 -24L20.8 -12L20.8 12L0 24L-20.8 12L-20.8 -12Z" fill="#29a684"></path></g><g transform="translate(16 716)"><path d="M0 -31L26.8 -15.5L26.8 15.5L0 31L-26.8 15.5L-26.8 -15.5Z" fill="#29a684"></path></g><g transform="translate(278 645)"><path d="M0 -54L46.8 -27L46.8 27L0 54L-46.8 27L-46.8 -27Z" fill="#29a684"></path></g><g transform="translate(387 590)"><path d="M0 -32L27.7 -16L27.7 16L0 32L-27.7 16L-27.7 -16Z" fill="#29a684"></path></g><g transform="translate(55 483)"><path d="M0 -48L41.6 -24L41.6 24L0 48L-41.6 24L-41.6 -24Z" fill="#29a684"></path></g><g transform="translate(333 167)"><path d="M0 -39L33.8 -19.5L33.8 19.5L0 39L-33.8 19.5L-33.8 -19.5Z" fill="#29a684"></path></g><g transform="translate(246 385)"><path d="M0 -57L49.4 -28.5L49.4 28.5L0 57L-49.4 28.5L-49.4 -28.5Z" fill="#29a684"></path></g><g transform="translate(210 861)"><path d="M0 -30L26 -15L26 15L0 30L-26 15L-26 -15Z" fill="#29a684"></path></g><g transform="translate(195 521)"><path d="M0 -20L17.3 -10L17.3 10L0 20L-17.3 10L-17.3 -10Z" fill="#29a684"></path></g></g></svg>