<svg id="visual" viewBox="0 0 900 450" width="900" height="450" xmlns="http://www.w3.org/2000/svg" xmlns:xlink="http://www.w3.org/1999/xlink" version="1.1"><path d="M0 42L82 69L164 69L245 73L327 33L409 91L491 55L573 69L655 82L736 64L818 64L900 37L900 0L818 0L736 0L655 0L573 0L491 0L409 0L327 0L245 0L164 0L82 0L0 0Z" fill="#ffffff"></path><path d="M0 109L82 132L164 100L245 141L327 96L409 127L491 82L573 109L655 154L736 91L818 118L900 64L900 35L818 62L736 62L655 80L573 67L491 53L409 89L327 31L245 71L164 67L82 67L0 40Z" fill="#eafff8"></path><path d="M0 159L82 213L164 145L245 226L327 190L409 208L491 199L573 186L655 258L736 177L818 208L900 190L900 62L818 116L736 89L655 152L573 107L491 80L409 125L327 94L245 139L164 98L82 130L0 107Z" fill="#d5fff1"></path><path d="M0 276L82 375L164 339L245 393L327 298L409 343L491 298L573 339L655 316L736 262L818 298L900 289L900 188L818 206L736 175L655 256L573 184L491 197L409 206L327 188L245 224L164 143L82 211L0 157Z" fill="#beffea"></path><path d="M0 451L82 451L164 451L245 451L327 451L409 451L491 451L573 451L655 451L736 451L818 451L900 451L900 287L818 296L736 260L655 314L573 337L491 296L409 341L327 296L245 391L164 337L82 373L0 274Z" fill="#a6ffe4"></path></svg>